<svg width="36" height="36" viewBox="0 0 36 36" fill="none" xmlns="http://www.w3.org/2000/svg">
<path d="M18.0057 0C10.8147 0 4.96005 5.16426 4.96005 11.5072C4.96005 14.444 6.25102 17.101 8.31205 19.1387L0 30.6859H8.22145L11.9811 36L18.0057 26.6304L24.0302 36L27.7899 30.6859H36L27.6993 19.1387C29.7603 17.101 31.0513 14.444 31.0513 11.5072C31.0513 5.16426 25.1966 0 18.0057 0ZM18.0057 2.55716C23.6225 2.55716 28.1523 6.55272 28.1523 11.5072C28.1523 13.5649 27.3369 15.4329 26.0233 16.9412L24.8003 18.02C23.498 19.1687 21.7427 19.9678 19.8855 20.2974C19.274 20.3973 18.6511 20.4573 18.0057 20.4573C17.3602 20.4573 16.7373 20.3973 16.1258 20.2974C14.2686 19.9678 12.5134 19.1687 11.2111 18.02L9.98805 16.9412C8.67443 15.4329 7.85907 13.5649 7.85907 11.5072C7.85907 6.55272 12.3888 2.55716 18.0057 2.55716ZM16.5561 5.11432C16.5561 6.52275 15.5143 7.67148 13.6571 7.67148V10.2286C14.7443 10.2286 15.7182 9.95893 16.5561 9.52941V17.9001H19.4552V5.11432H16.5561ZM10.4863 20.8768C12.3775 22.0555 14.6197 22.7747 17.0544 22.9345L11.8566 31.0055L9.82951 28.1287H5.27713L10.4863 20.8768ZM25.525 20.8768L30.7342 28.1287H26.1931L24.1548 31.0055L18.9569 22.9345C21.3916 22.7747 23.6338 22.0555 25.525 20.8768Z" fill="#151DE0"/>
</svg>
