<svg width="46" height="38" viewBox="0 0 46 38" fill="none" xmlns="http://www.w3.org/2000/svg">
<path d="M31 1H1V27H31V1Z" stroke="#15BCE0" stroke-width="2" stroke-linecap="round" stroke-linejoin="round"/>
<path d="M31 11H39L45 17V27H31V11Z" stroke="#15BCE0" stroke-width="2" stroke-linecap="round" stroke-linejoin="round"/>
<path d="M10 37C12.7614 37 15 34.7614 15 32C15 29.2386 12.7614 27 10 27C7.23858 27 5 29.2386 5 32C5 34.7614 7.23858 37 10 37Z" stroke="#15BCE0" stroke-width="2" stroke-linecap="round" stroke-linejoin="round"/>
<path d="M36 37C38.7614 37 41 34.7614 41 32C41 29.2386 38.7614 27 36 27C33.2386 27 31 29.2386 31 32C31 34.7614 33.2386 37 36 37Z" stroke="#15BCE0" stroke-width="2" stroke-linecap="round" stroke-linejoin="round"/>
</svg>
